<svg width="0" height="0" class="hidden">
  <symbol fill="none" xmlns="http://www.w3.org/2000/svg" viewBox="0 0 24 24" id="arrow-back">
    <path d="M20.9999 11H6.41394L11.7069 5.70697L10.2929 4.29297L2.58594 12L10.2929 19.707L11.7069 18.293L6.41394 13H20.9999V11Z" fill="#080C09"></path>
  </symbol>
  <symbol fill="none" xmlns="http://www.w3.org/2000/svg" viewBox="0 0 24 24" id="chevron-down">
    <path d="M16.293 8.29297L12 12.586L7.70697 8.29297L6.29297 9.70697L12 15.414L17.707 9.70697L16.293 8.29297Z" fill="#080C09"></path>
  </symbol>
  <symbol fill="none" xmlns="http://www.w3.org/2000/svg" viewBox="0 0 24 24" id="chevron-left">
    <path d="M13.2929 6.29297L7.58594 12L13.2929 17.707L14.7069 16.293L10.4139 12L14.7069 7.70697L13.2929 6.29297Z" fill="#080C09"></path>
  </symbol>
  <symbol fill="none" xmlns="http://www.w3.org/2000/svg" viewBox="0 0 24 24" id="chevron-right">
    <path d="M9.70697 16.9496L15.414 11.2426L9.70697 5.53564L8.29297 6.94964L12.586 11.2426L8.29297 15.5356L9.70697 16.9496Z" fill="#080C09"></path>
  </symbol>
  <symbol fill="none" xmlns="http://www.w3.org/2000/svg" viewBox="0 0 24 24" id="chevron-up">
    <path d="M6.29297 14.2929L7.70697 15.7069L12 11.4139L16.293 15.7069L17.707 14.2929L12 8.58594L6.29297 14.2929Z" fill="#080C09"></path>
  </symbol>
  <symbol fill="none" xmlns="http://www.w3.org/2000/svg" viewBox="0 0 112 48" id="company-logo">
    <g clip-path="url(#clip0_8205_61248)">
      <path d="M12.8423 12.4138C19.4194 11.8001 25.2471 16.6382 25.854 23.2158C26.4609 29.7937 21.617 35.6161 15.0387 36.2163C8.46996 36.8159 2.65741 31.9804 2.05133 25.4121C1.44532 18.844 6.27479 13.0265 12.8423 12.4138ZM15.2272 34.9514C21.0988 34.2463 25.286 28.9129 24.5775 23.042C23.869 17.1709 18.5332 12.987 12.6625 13.6992C6.79707 14.4108 2.61779 19.7407 3.32562 25.6064C4.03353 31.4729 9.3608 35.6551 15.2272 34.9514Z" fill="#fff"></path>
      <path d="M18.6314 18.0946L20.0072 18.0852C20.0339 22.0559 20.0358 26.0268 20.0131 29.9974L18.5905 30.0153L18.5884 22.5547L18.5819 20.5117C17.7873 22.0197 16.8852 23.4694 16.0257 24.9408C15.4809 25.8734 14.9749 26.9434 14.3008 27.782C14.14 27.8408 13.9655 27.8453 13.798 27.8069C13.7432 27.7941 13.6286 27.7513 13.5869 27.7181C13.2233 27.4279 9.80395 21.4211 9.25789 20.5102C9.39807 21.5904 9.30999 22.769 9.30941 23.8594L9.30526 29.9859L7.85059 29.991C7.89565 26.0268 7.82451 22.0597 7.86254 18.0945L9.44658 18.1028C10.151 19.3622 10.9066 20.5952 11.637 21.8398C12.4133 23.1624 13.1691 24.501 13.9938 25.7941C14.8328 24.262 15.771 22.777 16.6729 21.2803C17.3117 20.2203 17.9156 19.1039 18.6314 18.0946Z" fill="#fff"></path>
      <path d="M91.4704 20.9242C91.751 20.9053 92.0393 20.8979 92.3205 20.9029C93.3694 20.9216 94.4407 21.4824 95.1585 22.2259C96.0534 23.1524 96.4688 24.4445 96.4388 25.7191C96.4088 27.016 95.9223 28.249 94.968 29.1387C94.1217 29.9268 93.0377 30.3487 91.8782 30.3052C90.5506 30.2554 89.6704 29.6961 88.78 28.7456C88.7455 29.2896 88.7557 29.8399 88.7506 30.3851C88.7564 31.4679 88.7551 32.5507 88.7461 33.6341C88.2412 33.684 87.7324 33.6795 87.2281 33.6201C87.3105 31.9435 87.2377 30.2266 87.2383 28.5456C87.2383 26.045 87.2779 23.5378 87.2217 21.0381L88.7238 21.0323C88.6944 21.5901 88.7014 22.1536 88.6931 22.7124C89.5068 21.6968 90.1856 21.2072 91.4704 20.9242ZM92.1211 28.9636C93.0549 28.7884 93.7785 28.4075 94.3263 27.6015C94.8626 26.7993 95.055 25.8156 94.86 24.8708C94.6925 24.0289 94.194 23.2332 93.4608 22.7731C92.8836 22.4109 92.2591 22.3114 91.5925 22.3303C90.6669 22.5052 89.9165 22.8348 89.3617 23.6417C88.8388 24.4017 88.6138 25.4838 88.7903 26.3876C88.9577 27.2557 89.4723 28.0176 90.2156 28.4957C90.8082 28.8683 91.4339 28.9757 92.1211 28.9636Z" fill="#fff"></path>
      <path d="M63.4415 17.1565C63.6863 17.4081 63.7624 18.0719 63.9081 18.4275C62.3318 19.089 60.0467 18.953 58.7792 20.1638C58.0211 20.8881 57.8402 21.8896 57.8243 22.8877C58.5024 22.0501 59.2458 21.3713 60.358 21.1854C61.4817 20.9975 62.6725 21.2149 63.5942 21.9008C64.5843 22.6379 65.1353 23.7063 65.3009 24.9166C65.4907 26.3075 65.1443 27.6191 64.291 28.73C63.6729 29.4159 62.9538 29.9227 62.048 30.1445C60.9013 30.4258 59.5923 30.28 58.5817 29.653C57.4293 28.9371 56.7658 27.7559 56.4781 26.4564C56.0486 24.5145 56.133 21.6124 57.2522 19.8888C58.2391 18.3682 59.7297 18.0672 61.3858 17.6733C62.0736 17.5097 62.7518 17.3084 63.4415 17.1565ZM60.8208 28.9716C61.7968 28.8272 62.523 28.5932 63.1295 27.7546C63.7246 26.9326 63.917 25.8945 63.7323 24.9064C63.5834 24.1089 63.1634 23.3795 62.4789 22.9283C62.0595 22.651 61.5731 22.4922 61.0707 22.4684C60.1209 22.5746 59.3398 22.7713 58.7076 23.5547C58.1145 24.2902 57.8607 25.2835 57.9917 26.2154C58.1113 27.0655 58.576 27.8837 59.274 28.3906C59.7463 28.7332 60.2532 28.8834 60.8208 28.9716Z" fill="#fff"></path>
      <path d="M42.0841 17.7615C42.639 17.7059 43.2163 17.7325 43.7744 17.7286C43.6991 21.8143 43.789 25.9119 43.7655 29.9995L42.2942 29.9848L42.2965 22.7572C42.2924 21.9291 42.2752 21.0993 42.3259 20.2724C40.9699 22.7768 39.7465 25.3909 38.2614 27.8192L37.3053 27.8141C35.8425 25.4158 34.6251 22.8316 33.2724 20.3672C33.3253 21.4973 33.2895 22.6449 33.2903 23.7768L33.2935 30.0001C32.803 29.9873 32.3144 30.0193 31.8233 29.9963L31.824 22.5514C31.825 20.9511 31.7937 19.3407 31.8814 17.7426L33.5184 17.7434C33.9837 18.5413 34.3792 19.3962 34.8019 20.2181C35.7827 22.1246 36.7535 24.0518 37.8116 25.9163C39.3666 23.2797 40.5976 20.4396 42.0841 17.7615Z" fill="#fff"></path>
      <path d="M49.6516 20.927C49.8761 20.9149 50.1008 20.9064 50.3257 20.9015C51.5036 20.8821 52.6774 21.2035 53.5266 22.0571C54.6626 23.199 54.7757 24.638 54.7759 26.1586C52.3239 26.1899 49.8685 26.1567 47.416 26.1676C47.4916 26.5722 47.5677 26.9595 47.7603 27.329C48.1436 28.0679 48.8088 28.6208 49.6053 28.8624C50.5587 29.1513 51.5176 28.9819 52.3752 28.5089C52.6629 28.3133 52.926 28.0845 53.1938 27.8633C53.5787 28.0832 53.9682 28.2667 54.375 28.4424C53.7699 29.2587 52.9899 29.8538 52.0026 30.1241C50.7386 30.4699 49.1981 30.3344 48.0595 29.6646C47.0611 29.0759 46.3448 28.1069 46.0752 26.98C45.7388 25.6249 45.9267 24.1427 46.6619 22.9508C47.3707 21.8019 48.3652 21.2342 49.6516 20.927ZM47.4317 25.0132C48.6462 25.0036 49.8608 24.9997 51.0754 25.0029L53.3456 25.0042C53.1243 24.0725 52.9024 23.2089 52.0354 22.6634C51.4011 22.2643 50.6319 22.2035 49.9018 22.2644C49.1134 22.4464 48.4489 22.8053 47.9989 23.5001C47.6943 23.9707 47.5592 24.4763 47.4317 25.0132Z" fill="#fff"></path>
      <path d="M80.1542 20.9245C80.3747 20.9135 80.5946 20.9061 80.8151 20.9024C81.99 20.8897 83.1642 21.2383 84.0028 22.0955C85.106 23.2238 85.2077 24.6638 85.2025 26.1531C82.7608 26.1901 80.3134 26.1607 77.8704 26.1665C77.903 26.612 77.981 26.9955 78.1893 27.3963C78.5741 28.1384 79.2127 28.6293 80.0098 28.8626C81.0759 29.1758 82.0462 28.9444 82.9884 28.4216C83.2185 28.263 83.423 28.0694 83.632 27.884C84.0194 28.0924 84.4119 28.2611 84.8197 28.4235C84.1811 29.2627 83.3866 29.8712 82.3549 30.1327C81.0721 30.458 79.5994 30.3334 78.4546 29.6424C77.4383 29.0288 76.7416 28.0176 76.4744 26.8658C76.1695 25.5503 76.3824 24.0373 77.1174 22.8969C77.8525 21.7567 78.8579 21.2049 80.1542 20.9245ZM77.857 25.0102C79.0196 25.007 80.1836 24.991 81.3463 25.0032L83.8104 25.0019C83.5547 24.0439 83.2869 23.1106 82.3601 22.5836C81.7861 22.2569 81.0868 22.2013 80.4387 22.2668C79.6697 22.394 79.0196 22.6833 78.5422 23.3262C78.1638 23.8353 78.0027 24.4042 77.857 25.0102Z" fill="#fff"></path>
      <path d="M105.514 21.0534C107.001 20.9837 108.51 21.0342 110 21.039C109.924 24.017 109.992 27.0152 109.991 29.9957L108.458 29.9791L108.457 26.9193C107.725 26.9148 106.761 26.7716 106.063 26.9378C105.845 26.9896 105.806 27.0995 105.684 27.2689C105.167 28.1861 104.592 29.0714 104.073 29.9893C103.494 30.0021 102.914 30.004 102.335 29.9938C102.902 28.9295 103.672 27.5751 104.422 26.6534C104.332 26.6099 104.244 26.5639 104.157 26.5166C103.503 26.1554 103.002 25.5744 102.811 24.8457C102.611 24.0861 102.72 23.2191 103.126 22.5447C103.674 21.6347 104.532 21.2849 105.514 21.0534ZM107.085 25.6351C107.537 25.6313 107.999 25.6454 108.45 25.6128C108.444 24.5536 108.447 23.4945 108.458 22.4353C107.56 22.4321 106.649 22.408 105.751 22.4572C105.185 22.6346 104.743 22.826 104.437 23.3718C104.235 23.7345 104.18 24.2132 104.317 24.6073C104.449 24.9889 104.756 25.2567 105.116 25.4197C105.725 25.6946 106.433 25.6409 107.085 25.6351Z" fill="#fff"></path>
      <path d="M68.4129 21.1353C70.3535 21.0653 72.3107 21.1107 74.2532 21.1071L74.2442 29.9943C73.7603 29.9872 73.2746 29.9668 72.7945 30.0326L72.7875 22.5045L71.9642 22.5377C71.2292 22.5015 70.4781 22.5499 69.7418 22.5671C69.7213 24.3585 69.7143 28.0722 68.4595 29.3979C67.8338 30.0588 67.1268 30.1266 66.2722 30.1336C66.2658 29.6663 66.2409 29.2049 66.207 28.7389C66.4301 28.7184 66.6666 28.7031 66.8839 28.6481C68.2345 28.3074 68.2582 23.8445 68.2921 22.7193C68.3055 22.2808 68.2083 21.4923 68.4129 21.1353Z" fill="#fff"></path>
      <path d="M99.8876 21.07L100.086 21.0583C100.11 21.0906 100.144 21.1175 100.159 21.1552C100.225 21.33 100.157 29.0934 100.157 29.9908L98.856 29.9998L98.7601 29.9806C98.5517 29.6041 98.7607 22.2061 98.6955 21.0878C99.0931 21.0927 99.4907 21.0793 99.8876 21.07Z" fill="#fff"></path>
      <path d="M98.6682 17.7183L100.165 17.7139C100.149 18.2451 100.161 18.7768 100.169 19.3081L98.6279 19.3197C98.6503 18.7862 98.6637 18.2523 98.6682 17.7183Z" fill="#fff"></path>
    </g>
    <defs>
      <clipPath id="clip0_8205_61248">
        <rect width="108" height="23.9052" fill="white" transform="translate(2 12.3613)"></rect>
      </clipPath>
    </defs>
  </symbol>
  <symbol fill="none" xmlns="http://www.w3.org/2000/svg" viewBox="0 0 24 24" id="down-arrow-alt">
    <path d="M18.707 12.707L17.293 11.293L13 15.586V6H11V15.586L6.70697 11.293L5.29297 12.707L12 19.414L18.707 12.707Z" fill="#080C09"></path>
  </symbol>
  <symbol fill="none" xmlns="http://www.w3.org/2000/svg" viewBox="0 0 24 24" id="facebook">
    <path d="M22 12.3038C22 6.74719 17.5229 2.24268 12 2.24268C6.47715 2.24268 2 6.74719 2 12.3038C2 17.3255 5.65684 21.4879 10.4375 22.2427V15.2121H7.89844V12.3038H10.4375V10.0872C10.4375 7.56564 11.9305 6.1728 14.2146 6.1728C15.3088 6.1728 16.4531 6.36931 16.4531 6.36931V8.84529H15.1922C13.95 8.84529 13.5625 9.6209 13.5625 10.4166V12.3038H16.3359L15.8926 15.2121H13.5625V22.2427C18.3432 21.4879 22 17.3257 22 12.3038Z" fill="#fff"></path>
  </symbol>
  <symbol fill="none" xmlns="http://www.w3.org/2000/svg" viewBox="0 0 24 24" id="favicon">
    <path d="M11.203 3.33966C16.1358 2.8794 20.5066 6.50793 20.9618 11.4412C21.417 16.3746 17.7841 20.7414 12.8503 21.1915C7.92376 21.6412 3.56435 18.0146 3.10979 13.0884C2.65528 8.16231 6.27738 3.79921 11.203 3.33966ZM12.9917 20.2428C17.3954 19.714 20.5358 15.714 20.0044 11.3108C19.4731 6.90745 15.4712 3.76954 11.0682 4.30372C6.66909 4.83738 3.53463 8.83485 4.06551 13.2341C4.59644 17.634 8.59189 20.7706 12.9917 20.2428Z" fill="#080C09" stroke="black" stroke-width="0.5"></path>
    <path d="M15.5446 7.60031L16.5764 7.59326C16.5965 10.5713 16.5979 13.5494 16.5809 16.5274L15.5139 16.5408L15.5124 10.9454L15.5075 9.41313C14.9115 10.5441 14.2349 11.6314 13.5903 12.7349C13.1817 13.4344 12.8023 14.2369 12.2966 14.8658C12.176 14.91 12.0452 14.9133 11.9195 14.8845C11.8785 14.875 11.7925 14.8428 11.7612 14.8179C11.4885 14.6003 8.92401 10.0952 8.51446 9.41203C8.61959 10.2222 8.55353 11.1061 8.5531 11.9239L8.54999 16.5188L7.45898 16.5226C7.49278 13.5494 7.43943 10.5741 7.46795 7.60026L8.65598 7.60645C9.18427 8.55099 9.75096 9.47579 10.2988 10.4092C10.881 11.4012 11.4479 12.4051 12.0664 13.3749C12.6956 12.2258 13.3993 11.1121 14.0757 9.9896C14.5548 9.19458 15.0077 8.35732 15.5446 7.60031Z" fill="#080C09" stroke="black" stroke-width="0.5"></path>
  </symbol>
  <symbol fill="none" xmlns="http://www.w3.org/2000/svg" viewBox="0 0 24 24" id="instagram">
    <path d="M11.9988 4.62091C14.4032 4.62091 14.6878 4.63159 15.6332 4.67378C16.5123 4.71258 16.9864 4.85994 17.303 4.98311C17.7215 5.14509 18.0235 5.34194 18.3362 5.65465C18.6528 5.97129 18.8458 6.26994 19.0111 6.68838C19.1343 7.00503 19.2816 7.48253 19.3204 8.35822C19.3626 9.3076 19.3733 9.59218 19.3733 11.9932C19.3733 14.3942 19.3626 14.6821 19.3204 15.6281C19.2816 16.5072 19.1343 16.9813 19.0111 17.298C18.8491 17.7164 18.6528 18.0184 18.3396 18.3311C18.0229 18.6478 17.7243 18.8407 17.3064 19.0061C16.9898 19.1292 16.5117 19.2766 15.6366 19.3154C14.6872 19.3576 14.4026 19.3683 12.0016 19.3683C9.60062 19.3683 9.31266 19.3576 8.36666 19.3154C7.48759 19.2766 7.01346 19.1292 6.69682 19.0061C6.27838 18.8441 5.97635 18.6478 5.66308 18.3345C5.34644 18.0179 5.15353 17.7192 4.98817 17.3013C4.865 16.9847 4.71765 16.5066 4.67884 15.6315C4.63666 14.6821 4.62597 14.3975 4.62597 11.9965C4.62597 9.59556 4.63666 9.3076 4.67884 8.3616C4.71765 7.48253 4.865 7.0084 4.98817 6.69176C5.15015 6.27331 5.347 5.97129 5.65971 5.65802C5.97635 5.34137 6.275 5.14846 6.69344 4.98311C7.01009 4.85994 7.48759 4.71258 8.36328 4.67378C9.30872 4.63159 9.59387 4.62091 11.9982 4.62091H11.9988ZM11.9988 3.00056C9.55563 3.00056 9.25023 3.01125 8.29017 3.05343C7.33405 3.09561 6.67657 3.25028 6.1074 3.47187C5.51348 3.70359 5.01067 4.00955 4.5118 4.51236C4.00899 5.01179 3.70303 5.51404 3.47131 6.10459C3.24972 6.6777 3.09505 7.33123 3.05287 8.28736C3.01069 9.25079 3 9.55619 3 11.9994C3 14.4425 3.01069 14.7479 3.05287 15.708C3.09505 16.6641 3.24972 17.3216 3.47131 17.8908C3.70359 18.4847 4.00899 18.9875 4.5118 19.4864C5.01067 19.9852 5.51348 20.2951 6.10402 20.5235C6.67713 20.7451 7.33067 20.8997 8.28679 20.9419C9.24629 20.9841 9.55225 20.9948 11.9954 20.9948C14.4386 20.9948 14.7446 20.9841 15.7041 20.9419C16.6602 20.8997 17.3177 20.7451 17.8868 20.5235C18.4774 20.2951 18.9802 19.9858 19.4791 19.4864C19.9779 18.9869 20.2878 18.4847 20.5162 17.8941C20.7378 17.321 20.8924 16.6675 20.9346 15.7114C20.9768 14.7519 20.9875 14.4459 20.9875 12.0027C20.9875 9.55956 20.9768 9.25417 20.9346 8.29411C20.8924 7.33798 20.7378 6.68051 20.5162 6.11133C20.2946 5.51348 19.9886 5.01123 19.4864 4.5118C18.9875 4.01293 18.4847 3.70303 17.8941 3.47469C17.321 3.25309 16.6675 3.09842 15.7114 3.05624C14.7485 3.01069 14.4425 3 11.9994 3L11.9988 3.00056Z" fill="#fff"></path>
    <path d="M11.9985 7.37671C9.44683 7.37671 7.37598 9.447 7.37598 11.9993C7.37598 14.5516 9.44626 16.6219 11.9985 16.6219C14.5508 16.6219 16.6211 14.5516 16.6211 11.9993C16.6211 9.44756 14.5508 7.37671 11.9985 7.37671ZM11.9985 14.9976C10.3428 14.9976 9.00026 13.6551 9.00026 11.9993C9.00026 10.3435 10.3428 9.00099 11.9985 9.00099C13.6543 9.00099 14.9968 10.3435 14.9968 11.9993C14.9968 13.6551 13.6543 14.9976 11.9985 14.9976Z" fill="#fff"></path>
    <path d="M17.8822 7.19404C17.8822 7.79021 17.3991 8.27333 16.8029 8.27333C16.2068 8.27333 15.7236 7.79021 15.7236 7.19404C15.7236 6.59787 16.2068 6.11475 16.8029 6.11475C17.3991 6.11475 17.8822 6.59787 17.8822 7.19404Z" fill="#fff"></path>
  </symbol>
  <symbol fill="none" xmlns="http://www.w3.org/2000/svg" viewBox="0 0 24 24" id="left-arrow-alt">
    <path d="M12.7069 17.293L8.41394 13H17.9999V11H8.41394L12.7069 6.70697L11.2929 5.29297L4.58594 12L11.2929 18.707L12.7069 17.293Z" fill="#080C09"></path>
  </symbol>
  <symbol fill="none" xmlns="http://www.w3.org/2000/svg" viewBox="0 0 24 24" id="menu">
    <path d="M4 6H20V8H4V6ZM4 11H20V13H4V11ZM4 16H20V18H4V16Z" fill="#080C09"></path>
  </symbol>
  <symbol fill="none" xmlns="http://www.w3.org/2000/svg" viewBox="0 0 24 24" id="minus">
    <path d="M5 11H19V13H5V11Z" fill="#080C09"></path>
  </symbol>
  <symbol fill="none" xmlns="http://www.w3.org/2000/svg" viewBox="0 0 24 24" id="plus">
    <path d="M19 11H13V5H11V11H5V13H11V19H13V13H19V11Z" fill="#080C09"></path>
  </symbol>
  <symbol fill="none" xmlns="http://www.w3.org/2000/svg" viewBox="0 0 24 24" id="right-arrow-alt">
    <path d="M11.293 17.293L12.707 18.707L19.414 12L12.707 5.29297L11.293 6.70697L15.586 11H6V13H15.586L11.293 17.293Z" fill="#080C09"></path>
  </symbol>
  <symbol fill="none" xmlns="http://www.w3.org/2000/svg" viewBox="0 0 24 24" id="star">
    <path d="M6.51603 14.323L5.02603 20.775C4.97989 20.9704 4.99374 21.1751 5.06577 21.3625C5.1378 21.5499 5.26467 21.7112 5.4298 21.8253C5.59492 21.9395 5.79064 22.0012 5.99138 22.0024C6.19212 22.0036 6.38855 21.9442 6.55503 21.832L12 18.202L17.445 21.832C17.6154 21.9451 17.8162 22.0033 18.0207 21.9988C18.2251 21.9944 18.4232 21.9274 18.5884 21.8069C18.7536 21.6865 18.878 21.5183 18.9448 21.3251C19.0116 21.1318 19.0176 20.9228 18.962 20.726L17.133 14.326L21.669 10.244C21.8143 10.1132 21.9181 9.94266 21.9674 9.75351C22.0168 9.56436 22.0097 9.36488 21.9469 9.17974C21.8841 8.99461 21.7685 8.83193 21.6142 8.71183C21.46 8.59173 21.2739 8.51947 21.079 8.504L15.378 8.05L12.911 2.589C12.8324 2.41316 12.7045 2.26384 12.5428 2.15906C12.3812 2.05429 12.1927 1.99854 12 1.99854C11.8074 1.99854 11.6189 2.05429 11.4572 2.15906C11.2956 2.26384 11.1677 2.41316 11.089 2.589L8.62203 8.05L2.92103 8.503C2.72948 8.51818 2.54636 8.58821 2.39358 8.70473C2.2408 8.82125 2.12482 8.97932 2.05952 9.16003C1.99422 9.34074 1.98236 9.53644 2.02537 9.72371C2.06838 9.91098 2.16443 10.0819 2.30203 10.216L6.51603 14.323ZM9.36903 9.997C9.54752 9.98294 9.71895 9.92112 9.86533 9.81802C10.0117 9.71491 10.1277 9.57433 10.201 9.411L12 5.43L13.799 9.411C13.8724 9.57433 13.9883 9.71491 14.1347 9.81802C14.2811 9.92112 14.4525 9.98294 14.631 9.997L18.603 10.312L15.332 13.256C15.048 13.512 14.935 13.906 15.039 14.274L16.292 18.659L12.556 16.168C12.392 16.0579 12.199 15.9992 12.0015 15.9992C11.804 15.9992 11.611 16.0579 11.447 16.168L7.54303 18.771L8.59303 14.225C8.63153 14.0578 8.62636 13.8835 8.57802 13.7189C8.52969 13.5543 8.43981 13.4048 8.31703 13.285L5.27903 10.323L9.36903 9.997Z" fill="#080C09"></path>
  </symbol>
  <symbol fill="none" xmlns="http://www.w3.org/2000/svg" viewBox="0 0 24 24" id="up-arrow-alt">
    <path d="M11 8.41394V17.9999H13V8.41394L17.293 12.7069L18.707 11.2929L12 4.58594L5.29297 11.2929L6.70697 12.7069L11 8.41394Z" fill="#080C09"></path>
  </symbol>
  <symbol fill="none" xmlns="http://www.w3.org/2000/svg" viewBox="0 0 24 24" id="x">
    <path d="M16.192 6.34424L11.949 10.5862L7.70697 6.34424L6.29297 7.75824L10.535 12.0002L6.29297 16.2422L7.70697 17.6562L11.949 13.4142L16.192 17.6562L17.606 16.2422L13.364 12.0002L17.606 7.75824L16.192 6.34424Z" fill="#080C09"></path>
  </symbol>
  <symbol fill="none" xmlns="http://www.w3.org/2000/svg" viewBox="0 0 24 24" id="youtube">
    <path d="M21.5933 7.20301C21.4794 6.78041 21.2568 6.39501 20.9477 6.08518C20.6386 5.77534 20.2537 5.55187 19.8313 5.43701C18.2653 5.00701 12.0003 5.00001 12.0003 5.00001C12.0003 5.00001 5.73633 4.99301 4.16933 5.40401C3.74725 5.52415 3.36315 5.75078 3.0539 6.06214C2.74464 6.3735 2.52062 6.75913 2.40333 7.18201C1.99033 8.74801 1.98633 11.996 1.98633 11.996C1.98633 11.996 1.98233 15.26 2.39233 16.81C2.62233 17.667 3.29733 18.344 4.15533 18.575C5.73733 19.005 11.9853 19.012 11.9853 19.012C11.9853 19.012 18.2503 19.019 19.8163 18.609C20.2388 18.4943 20.6241 18.2714 20.934 17.9622C21.2439 17.653 21.4677 17.2682 21.5833 16.846C21.9973 15.281 22.0003 12.034 22.0003 12.034C22.0003 12.034 22.0203 8.76901 21.5933 7.20301ZM9.99633 15.005L10.0013 9.00501L15.2083 12.01L9.99633 15.005Z" fill="#fff"></path>
  </symbol>
</svg>